<svg width="25" height="24" viewBox="0 0 25 24" fill="none" xmlns="http://www.w3.org/2000/svg">
<path d="M20 0L5 0C2.64298 0 1.46447 0 0.732233 0.732233C0 1.46447 0 2.64298 0 5L0 18.2614C0 20.6184 0 21.7969 0.732233 22.5291C1.46447 23.2614 2.64298 23.2614 5 23.2614H20C22.357 23.2614 23.5355 23.2614 24.2678 22.5291C25 21.7969 25 20.6184 25 18.2614V5C25 2.64298 25 1.46447 24.2678 0.732233C23.5355 0 22.357 0 20 0Z" fill="white"/>
<path d="M15.8814 18.6659C16.3974 18.387 17.017 18.5809 17.4706 18.9526C17.8829 19.2904 18.4029 19.5003 19.1108 19.5003C20.0843 19.5003 20.7061 19.0477 20.7061 18.4222C20.7061 17.6727 20.0672 17.4072 18.9958 16.9711L18.4085 16.7367C16.7132 16.0647 15.587 15.2228 15.587 13.4432C15.587 11.8038 16.9295 10.5558 19.0275 10.5558C20.1326 10.5558 21.0078 10.8205 21.7018 11.4712C22.1323 11.8747 21.9555 12.5529 21.4489 12.8555C20.9464 13.1557 20.3334 12.9185 19.8187 12.6399C19.5916 12.5169 19.3344 12.4621 19.0275 12.4621C18.3394 12.4621 17.9033 12.8683 17.9033 13.3988C17.9033 14.0546 18.3398 14.3201 19.3478 14.7262L19.9351 14.9603C21.9311 15.7567 23.0581 16.5687 23.0581 18.3941C23.0581 20.3621 21.3966 21.4403 19.1652 21.4403C17.5438 21.4403 16.3488 20.9059 15.5589 20.111C15.118 19.6673 15.3311 18.9634 15.8814 18.6659ZM7.53293 18.9041C8.06889 18.6022 8.68265 18.8531 9.17313 19.2243C9.3885 19.3874 9.65204 19.4867 10.0065 19.4867C10.7783 19.4867 11.2652 19.2057 11.2652 18.1132V11.8552C11.2652 11.2065 11.7911 10.6806 12.4398 10.6806C13.0885 10.6806 13.6144 11.2065 13.6144 11.8552V18.1427C13.6144 20.4061 12.1882 21.4362 10.1065 21.4362C8.77339 21.4362 7.83795 20.9813 7.20891 20.3279C6.78579 19.8884 7.0014 19.2035 7.53293 18.9041Z" fill="#F16565"/>
</svg>
